<svg width="94" height="142" viewBox="0 0 94 142" fill="none" xmlns="http://www.w3.org/2000/svg">
<path d="M21.2734 20.2578H12.5078L12.4609 15.1484H19.7031C20.9844 15.1484 22.0234 14.9922 22.8203 14.6797C23.6328 14.3672 24.2266 13.9141 24.6016 13.3203C24.9766 12.7109 25.1641 11.9609 25.1641 11.0703C25.1641 10.0547 24.9766 9.23438 24.6016 8.60938C24.2266 7.98437 23.6328 7.53125 22.8203 7.25C22.0234 6.95312 20.9922 6.80469 19.7266 6.80469H15.2734V35H7.63281V0.875H19.7266C21.7734 0.875 23.6016 1.0625 25.2109 1.4375C26.8203 1.8125 28.1875 2.39063 29.3125 3.17188C30.4531 3.95312 31.3203 4.92969 31.9141 6.10156C32.5078 7.27344 32.8047 8.65625 32.8047 10.25C32.8047 11.6406 32.4922 12.9375 31.8672 14.1406C31.2578 15.3438 30.2734 16.3203 28.9141 17.0703C27.5547 17.8203 25.7344 18.2266 23.4531 18.2891L21.2734 20.2578ZM20.9688 35H10.5625L13.3281 29.0938H20.9688C22.1406 29.0938 23.0938 28.9062 23.8281 28.5312C24.5625 28.1562 25.1016 27.6484 25.4453 27.0078C25.7891 26.3672 25.9609 25.6484 25.9609 24.8516C25.9609 23.9141 25.7969 23.1016 25.4688 22.4141C25.1562 21.7266 24.6562 21.1953 23.9688 20.8203C23.2969 20.4453 22.3984 20.2578 21.2734 20.2578H14.4297L14.4766 15.1484H22.8438L24.625 17.1641C26.7969 17.1172 28.5312 17.4688 29.8281 18.2188C31.1406 18.9531 32.0859 19.9219 32.6641 21.125C33.2422 22.3281 33.5312 23.6016 33.5312 24.9453C33.5312 27.1641 33.0547 29.0234 32.1016 30.5234C31.1484 32.0078 29.7344 33.125 27.8594 33.875C26 34.625 23.7031 35 20.9688 35ZM52.9844 28.8828V9.64062H60.3438V35H53.4531L52.9844 28.8828ZM53.7578 23.7031L55.7734 23.6562C55.7734 25.3594 55.5703 26.9297 55.1641 28.3672C54.7734 29.8047 54.1797 31.0547 53.3828 32.1172C52.6016 33.1797 51.625 34.0078 50.4531 34.6016C49.2969 35.1797 47.9453 35.4688 46.3984 35.4688C45.1484 35.4688 44 35.2969 42.9531 34.9531C41.9219 34.5938 41.0312 34.0391 40.2812 33.2891C39.5312 32.5234 38.9531 31.5469 38.5469 30.3594C38.1406 29.1562 37.9375 27.7188 37.9375 26.0469V9.64062H45.25V26.0938C45.25 26.75 45.3281 27.3125 45.4844 27.7812C45.6562 28.2344 45.8828 28.6094 46.1641 28.9062C46.4609 29.2031 46.8203 29.4219 47.2422 29.5625C47.6797 29.7031 48.1562 29.7734 48.6719 29.7734C49.9688 29.7734 50.9844 29.5078 51.7188 28.9766C52.4688 28.4297 52.9922 27.7031 53.2891 26.7969C53.6016 25.875 53.7578 24.8438 53.7578 23.7031ZM72.7422 32.0703L79.375 9.64062H87.25L77.0547 38.7969C76.8359 39.4375 76.5391 40.125 76.1641 40.8594C75.8047 41.5938 75.3125 42.2969 74.6875 42.9688C74.0781 43.6406 73.2969 44.1875 72.3438 44.6094C71.3906 45.0312 70.2188 45.2422 68.8281 45.2422C68.125 45.2422 67.5781 45.2031 67.1875 45.125C66.8125 45.0625 66.3125 44.9531 65.6875 44.7969L65.6641 39.4766C65.8672 39.4766 66.0469 39.4766 66.2031 39.4766C66.375 39.4922 66.5469 39.5 66.7188 39.5C67.5938 39.5 68.2969 39.4062 68.8281 39.2188C69.375 39.0312 69.7969 38.75 70.0938 38.375C70.4062 38.0156 70.6562 37.5547 70.8438 36.9922L72.7422 32.0703ZM70.5156 9.64062L75.7656 27.6875L76.6562 35.4453L71.7109 35.7031L62.6406 9.64062H70.5156ZM19.1875 53.875H25.5156L33.7188 78.2734L41.8984 53.875H48.2266L36.2734 88H31.1406L19.1875 53.875ZM15.5312 53.875H21.9766L23.1719 79.1641V88H15.5312V53.875ZM45.4375 53.875H51.9062V88H44.2422V79.1641L45.4375 53.875ZM64.8438 85.0703L71.4766 62.6406H79.3516L69.1562 91.7969C68.9375 92.4375 68.6406 93.125 68.2656 93.8594C67.9062 94.5938 67.4141 95.2969 66.7891 95.9688C66.1797 96.6406 65.3984 97.1875 64.4453 97.6094C63.4922 98.0312 62.3203 98.2422 60.9297 98.2422C60.2266 98.2422 59.6797 98.2031 59.2891 98.125C58.9141 98.0625 58.4141 97.9531 57.7891 97.7969L57.7656 92.4766C57.9688 92.4766 58.1484 92.4766 58.3047 92.4766C58.4766 92.4922 58.6484 92.5 58.8203 92.5C59.6953 92.5 60.3984 92.4062 60.9297 92.2188C61.4766 92.0312 61.8984 91.75 62.1953 91.375C62.5078 91.0156 62.7578 90.5547 62.9453 89.9922L64.8438 85.0703ZM62.6172 62.6406L67.8672 80.6875L68.7578 88.4453L63.8125 88.7031L54.7422 62.6406H62.6172ZM0.273438 106.875H13.375C15.9844 106.875 18.2422 107.266 20.1484 108.047C22.0703 108.828 23.5469 109.984 24.5781 111.516C25.6094 113.047 26.125 114.938 26.125 117.188C26.125 119.062 25.8203 120.656 25.2109 121.969C24.6016 123.281 23.7422 124.367 22.6328 125.227C21.5391 126.086 20.2578 126.781 18.7891 127.312L16.3047 128.672H5.14844L5.10156 122.742H13.3984C14.5391 122.742 15.4844 122.539 16.2344 122.133C16.9844 121.727 17.5469 121.156 17.9219 120.422C18.3125 119.672 18.5078 118.797 18.5078 117.797C18.5078 116.766 18.3125 115.875 17.9219 115.125C17.5312 114.375 16.9531 113.805 16.1875 113.414C15.4375 113.008 14.5 112.805 13.375 112.805H7.91406V141H0.273438V106.875ZM19.1641 141L11.5 125.836L19.5625 125.812L27.3438 140.648V141H19.1641ZM38.6406 115.641V141H31.3047V115.641H38.6406ZM30.8594 109.078C30.8594 108.016 31.2344 107.148 31.9844 106.477C32.7344 105.789 33.7188 105.445 34.9375 105.445C36.1562 105.445 37.1406 105.789 37.8906 106.477C38.6562 107.148 39.0391 108.016 39.0391 109.078C39.0391 110.125 38.6562 110.992 37.8906 111.68C37.1406 112.352 36.1562 112.688 34.9375 112.688C33.7188 112.688 32.7344 112.352 31.9844 111.68C31.2344 110.992 30.8594 110.125 30.8594 109.078ZM58.6797 135.328V105H66.0391V141H59.4297L58.6797 135.328ZM42.8828 128.625V128.133C42.8828 126.211 43.0938 124.461 43.5156 122.883C43.9531 121.289 44.5859 119.922 45.4141 118.781C46.2578 117.625 47.2969 116.734 48.5312 116.109C49.7656 115.484 51.1797 115.172 52.7734 115.172C54.2422 115.172 55.5234 115.5 56.6172 116.156C57.7109 116.797 58.6406 117.703 59.4062 118.875C60.1875 120.031 60.8203 121.398 61.3047 122.977C61.7891 124.539 62.1562 126.234 62.4062 128.062V128.906C62.1719 130.656 61.8047 132.289 61.3047 133.805C60.8203 135.32 60.1875 136.656 59.4062 137.812C58.6406 138.953 57.7031 139.852 56.5938 140.508C55.5 141.148 54.2109 141.469 52.7266 141.469C51.1328 141.469 49.7188 141.148 48.4844 140.508C47.2656 139.867 46.2422 138.969 45.4141 137.812C44.5859 136.656 43.9531 135.297 43.5156 133.734C43.0938 132.172 42.8828 130.469 42.8828 128.625ZM50.1953 128.133V128.625C50.1953 129.625 50.2656 130.555 50.4062 131.414C50.5625 132.273 50.8125 133.031 51.1562 133.688C51.5 134.344 51.9531 134.859 52.5156 135.234C53.0781 135.594 53.7656 135.773 54.5781 135.773C55.6719 135.773 56.5703 135.523 57.2734 135.023C57.9766 134.508 58.5078 133.797 58.8672 132.891C59.2266 131.984 59.4141 130.93 59.4297 129.727V127.266C59.4297 126.266 59.3281 125.367 59.125 124.57C58.9219 123.773 58.6172 123.102 58.2109 122.555C57.8203 122.008 57.3281 121.594 56.7344 121.312C56.1406 121.016 55.4375 120.867 54.625 120.867C53.8281 120.867 53.1484 121.055 52.5859 121.43C52.0234 121.789 51.5625 122.297 51.2031 122.953C50.8594 123.609 50.6016 124.383 50.4297 125.273C50.2734 126.148 50.1953 127.102 50.1953 128.133ZM82.8672 141.469C80.8516 141.469 79.0469 141.148 77.4531 140.508C75.8594 139.867 74.5078 138.984 73.3984 137.859C72.3047 136.719 71.4688 135.406 70.8906 133.922C70.3125 132.438 70.0234 130.852 70.0234 129.164V128.273C70.0234 126.383 70.2891 124.641 70.8203 123.047C71.3516 121.453 72.125 120.07 73.1406 118.898C74.1719 117.711 75.4375 116.797 76.9375 116.156C78.4375 115.5 80.1484 115.172 82.0703 115.172C83.8672 115.172 85.4688 115.469 86.875 116.062C88.2812 116.641 89.4688 117.477 90.4375 118.57C91.4062 119.648 92.1406 120.953 92.6406 122.484C93.1562 124 93.4141 125.703 93.4141 127.594V130.594H72.9766V125.883H86.2422V125.32C86.2422 124.43 86.0781 123.648 85.75 122.977C85.4375 122.305 84.9688 121.789 84.3438 121.43C83.7344 121.055 82.9609 120.867 82.0234 120.867C81.1328 120.867 80.3906 121.055 79.7969 121.43C79.2031 121.805 78.7266 122.336 78.3672 123.023C78.0234 123.695 77.7734 124.484 77.6172 125.391C77.4609 126.281 77.3828 127.242 77.3828 128.273V129.164C77.3828 130.148 77.5156 131.047 77.7812 131.859C78.0469 132.672 78.4375 133.367 78.9531 133.945C79.4688 134.523 80.0938 134.977 80.8281 135.305C81.5625 135.633 82.3984 135.797 83.3359 135.797C84.4922 135.797 85.5938 135.578 86.6406 135.141C87.6875 134.688 88.5938 133.984 89.3594 133.031L92.7812 136.945C92.2656 137.695 91.5391 138.422 90.6016 139.125C89.6797 139.812 88.5703 140.375 87.2734 140.812C85.9766 141.25 84.5078 141.469 82.8672 141.469Z" fill="#ED2831"/>
</svg>
