<svg width="243" height="47" viewBox="0 0 243 47" fill="none" xmlns="http://www.w3.org/2000/svg">
<path d="M14.4531 21.2578H5.6875L5.64062 16.1484H12.8828C14.1641 16.1484 15.2031 15.9922 16 15.6797C16.8125 15.3672 17.4062 14.9141 17.7812 14.3203C18.1562 13.7109 18.3438 12.9609 18.3438 12.0703C18.3438 11.0547 18.1562 10.2344 17.7812 9.60938C17.4062 8.98437 16.8125 8.53125 16 8.25C15.2031 7.95312 14.1719 7.80469 12.9062 7.80469H8.45312V36H0.8125V1.875H12.9062C14.9531 1.875 16.7812 2.0625 18.3906 2.4375C20 2.8125 21.3672 3.39063 22.4922 4.17188C23.6328 4.95312 24.5 5.92969 25.0938 7.10156C25.6875 8.27344 25.9844 9.65625 25.9844 11.25C25.9844 12.6406 25.6719 13.9375 25.0469 15.1406C24.4375 16.3438 23.4531 17.3203 22.0938 18.0703C20.7344 18.8203 18.9141 19.2266 16.6328 19.2891L14.4531 21.2578ZM14.1484 36H3.74219L6.50781 30.0938H14.1484C15.3203 30.0938 16.2734 29.9062 17.0078 29.5312C17.7422 29.1562 18.2812 28.6484 18.625 28.0078C18.9688 27.3672 19.1406 26.6484 19.1406 25.8516C19.1406 24.9141 18.9766 24.1016 18.6484 23.4141C18.3359 22.7266 17.8359 22.1953 17.1484 21.8203C16.4766 21.4453 15.5781 21.2578 14.4531 21.2578H7.60938L7.65625 16.1484H16.0234L17.8047 18.1641C19.9766 18.1172 21.7109 18.4688 23.0078 19.2188C24.3203 19.9531 25.2656 20.9219 25.8438 22.125C26.4219 23.3281 26.7109 24.6016 26.7109 25.9453C26.7109 28.1641 26.2344 30.0234 25.2812 31.5234C24.3281 33.0078 22.9141 34.125 21.0391 34.875C19.1797 35.625 16.8828 36 14.1484 36ZM46.1641 29.8828V10.6406H53.5234V36H46.6328L46.1641 29.8828ZM46.9375 24.7031L48.9531 24.6562C48.9531 26.3594 48.75 27.9297 48.3438 29.3672C47.9531 30.8047 47.3594 32.0547 46.5625 33.1172C45.7812 34.1797 44.8047 35.0078 43.6328 35.6016C42.4766 36.1797 41.125 36.4688 39.5781 36.4688C38.3281 36.4688 37.1797 36.2969 36.1328 35.9531C35.1016 35.5938 34.2109 35.0391 33.4609 34.2891C32.7109 33.5234 32.1328 32.5469 31.7266 31.3594C31.3203 30.1562 31.1172 28.7188 31.1172 27.0469V10.6406H38.4297V27.0938C38.4297 27.75 38.5078 28.3125 38.6641 28.7812C38.8359 29.2344 39.0625 29.6094 39.3438 29.9062C39.6406 30.2031 40 30.4219 40.4219 30.5625C40.8594 30.7031 41.3359 30.7734 41.8516 30.7734C43.1484 30.7734 44.1641 30.5078 44.8984 29.9766C45.6484 29.4297 46.1719 28.7031 46.4688 27.7969C46.7812 26.875 46.9375 25.8438 46.9375 24.7031ZM65.9219 33.0703L72.5547 10.6406H80.4297L70.2344 39.7969C70.0156 40.4375 69.7188 41.125 69.3438 41.8594C68.9844 42.5938 68.4922 43.2969 67.8672 43.9688C67.2578 44.6406 66.4766 45.1875 65.5234 45.6094C64.5703 46.0312 63.3984 46.2422 62.0078 46.2422C61.3047 46.2422 60.7578 46.2031 60.3672 46.125C59.9922 46.0625 59.4922 45.9531 58.8672 45.7969L58.8438 40.4766C59.0469 40.4766 59.2266 40.4766 59.3828 40.4766C59.5547 40.4922 59.7266 40.5 59.8984 40.5C60.7734 40.5 61.4766 40.4062 62.0078 40.2188C62.5547 40.0312 62.9766 39.75 63.2734 39.375C63.5859 39.0156 63.8359 38.5547 64.0234 37.9922L65.9219 33.0703ZM63.6953 10.6406L68.9453 28.6875L69.8359 36.4453L64.8906 36.7031L55.8203 10.6406H63.6953ZM86.8281 1.875H93.1562L101.359 26.2734L109.539 1.875H115.867L103.914 36H98.7812L86.8281 1.875ZM83.1719 1.875H89.6172L90.8125 27.1641V36H83.1719V1.875ZM113.078 1.875H119.547V36H111.883V27.1641L113.078 1.875ZM132.484 33.0703L139.117 10.6406H146.992L136.797 39.7969C136.578 40.4375 136.281 41.125 135.906 41.8594C135.547 42.5938 135.055 43.2969 134.43 43.9688C133.82 44.6406 133.039 45.1875 132.086 45.6094C131.133 46.0312 129.961 46.2422 128.57 46.2422C127.867 46.2422 127.32 46.2031 126.93 46.125C126.555 46.0625 126.055 45.9531 125.43 45.7969L125.406 40.4766C125.609 40.4766 125.789 40.4766 125.945 40.4766C126.117 40.4922 126.289 40.5 126.461 40.5C127.336 40.5 128.039 40.4062 128.57 40.2188C129.117 40.0312 129.539 39.75 129.836 39.375C130.148 39.0156 130.398 38.5547 130.586 37.9922L132.484 33.0703ZM130.258 10.6406L135.508 28.6875L136.398 36.4453L131.453 36.7031L122.383 10.6406H130.258ZM149.734 1.875H162.836C165.445 1.875 167.703 2.26563 169.609 3.04688C171.531 3.82812 173.008 4.98438 174.039 6.51562C175.07 8.04687 175.586 9.9375 175.586 12.1875C175.586 14.0625 175.281 15.6562 174.672 16.9688C174.062 18.2812 173.203 19.3672 172.094 20.2266C171 21.0859 169.719 21.7812 168.25 22.3125L165.766 23.6719H154.609L154.562 17.7422H162.859C164 17.7422 164.945 17.5391 165.695 17.1328C166.445 16.7266 167.008 16.1562 167.383 15.4219C167.773 14.6719 167.969 13.7969 167.969 12.7969C167.969 11.7656 167.773 10.875 167.383 10.125C166.992 9.375 166.414 8.80469 165.648 8.41406C164.898 8.00781 163.961 7.80469 162.836 7.80469H157.375V36H149.734V1.875ZM168.625 36L160.961 20.8359L169.023 20.8125L176.805 35.6484V36H168.625ZM188.102 10.6406V36H180.766V10.6406H188.102ZM180.32 4.07812C180.32 3.01563 180.695 2.14844 181.445 1.47656C182.195 0.789063 183.18 0.445312 184.398 0.445312C185.617 0.445312 186.602 0.789063 187.352 1.47656C188.117 2.14844 188.5 3.01563 188.5 4.07812C188.5 5.125 188.117 5.99219 187.352 6.67969C186.602 7.35156 185.617 7.6875 184.398 7.6875C183.18 7.6875 182.195 7.35156 181.445 6.67969C180.695 5.99219 180.32 5.125 180.32 4.07812ZM208.141 30.3281V0H215.5V36H208.891L208.141 30.3281ZM192.344 23.625V23.1328C192.344 21.2109 192.555 19.4609 192.977 17.8828C193.414 16.2891 194.047 14.9219 194.875 13.7812C195.719 12.625 196.758 11.7344 197.992 11.1094C199.227 10.4844 200.641 10.1719 202.234 10.1719C203.703 10.1719 204.984 10.5 206.078 11.1562C207.172 11.7969 208.102 12.7031 208.867 13.875C209.648 15.0312 210.281 16.3984 210.766 17.9766C211.25 19.5391 211.617 21.2344 211.867 23.0625V23.9062C211.633 25.6562 211.266 27.2891 210.766 28.8047C210.281 30.3203 209.648 31.6562 208.867 32.8125C208.102 33.9531 207.164 34.8516 206.055 35.5078C204.961 36.1484 203.672 36.4688 202.188 36.4688C200.594 36.4688 199.18 36.1484 197.945 35.5078C196.727 34.8672 195.703 33.9688 194.875 32.8125C194.047 31.6562 193.414 30.2969 192.977 28.7344C192.555 27.1719 192.344 25.4688 192.344 23.625ZM199.656 23.1328V23.625C199.656 24.625 199.727 25.5547 199.867 26.4141C200.023 27.2734 200.273 28.0312 200.617 28.6875C200.961 29.3438 201.414 29.8594 201.977 30.2344C202.539 30.5938 203.227 30.7734 204.039 30.7734C205.133 30.7734 206.031 30.5234 206.734 30.0234C207.438 29.5078 207.969 28.7969 208.328 27.8906C208.688 26.9844 208.875 25.9297 208.891 24.7266V22.2656C208.891 21.2656 208.789 20.3672 208.586 19.5703C208.383 18.7734 208.078 18.1016 207.672 17.5547C207.281 17.0078 206.789 16.5938 206.195 16.3125C205.602 16.0156 204.898 15.8672 204.086 15.8672C203.289 15.8672 202.609 16.0547 202.047 16.4297C201.484 16.7891 201.023 17.2969 200.664 17.9531C200.32 18.6094 200.062 19.3828 199.891 20.2734C199.734 21.1484 199.656 22.1016 199.656 23.1328ZM232.328 36.4688C230.312 36.4688 228.508 36.1484 226.914 35.5078C225.32 34.8672 223.969 33.9844 222.859 32.8594C221.766 31.7188 220.93 30.4062 220.352 28.9219C219.773 27.4375 219.484 25.8516 219.484 24.1641V23.2734C219.484 21.3828 219.75 19.6406 220.281 18.0469C220.812 16.4531 221.586 15.0703 222.602 13.8984C223.633 12.7109 224.898 11.7969 226.398 11.1562C227.898 10.5 229.609 10.1719 231.531 10.1719C233.328 10.1719 234.93 10.4688 236.336 11.0625C237.742 11.6406 238.93 12.4766 239.898 13.5703C240.867 14.6484 241.602 15.9531 242.102 17.4844C242.617 19 242.875 20.7031 242.875 22.5938V25.5938H222.438V20.8828H235.703V20.3203C235.703 19.4297 235.539 18.6484 235.211 17.9766C234.898 17.3047 234.43 16.7891 233.805 16.4297C233.195 16.0547 232.422 15.8672 231.484 15.8672C230.594 15.8672 229.852 16.0547 229.258 16.4297C228.664 16.8047 228.188 17.3359 227.828 18.0234C227.484 18.6953 227.234 19.4844 227.078 20.3906C226.922 21.2812 226.844 22.2422 226.844 23.2734V24.1641C226.844 25.1484 226.977 26.0469 227.242 26.8594C227.508 27.6719 227.898 28.3672 228.414 28.9453C228.93 29.5234 229.555 29.9766 230.289 30.3047C231.023 30.6328 231.859 30.7969 232.797 30.7969C233.953 30.7969 235.055 30.5781 236.102 30.1406C237.148 29.6875 238.055 28.9844 238.82 28.0312L242.242 31.9453C241.727 32.6953 241 33.4219 240.062 34.125C239.141 34.8125 238.031 35.375 236.734 35.8125C235.438 36.25 233.969 36.4688 232.328 36.4688Z" fill="#ED2831"/>
</svg>
